<svg width="32" height="32" viewBox="0 0 32 32" fill="none" xmlns="http://www.w3.org/2000/svg">
<path d="M10.6667 7.66666C10.12 7.66666 9.66666 7.21332 9.66666 6.66666V2.66666C9.66666 2.11999 10.12 1.66666 10.6667 1.66666C11.2133 1.66666 11.6667 2.11999 11.6667 2.66666V6.66666C11.6667 7.21332 11.2133 7.66666 10.6667 7.66666Z" fill="black"/>
<path d="M21.3333 7.66666C20.7867 7.66666 20.3333 7.21332 20.3333 6.66666V2.66666C20.3333 2.11999 20.7867 1.66666 21.3333 1.66666C21.88 1.66666 22.3333 2.11999 22.3333 2.66666V6.66666C22.3333 7.21332 21.88 7.66666 21.3333 7.66666Z" fill="black"/>
<path d="M21.3333 30.3333H10.6667C5.8 30.3333 3 27.5333 3 22.6667V11.3333C3 6.46666 5.8 3.66666 10.6667 3.66666H21.3333C26.2 3.66666 29 6.46666 29 11.3333V22.6667C29 27.5333 26.2 30.3333 21.3333 30.3333ZM10.6667 5.66666C6.85333 5.66666 5 7.51999 5 11.3333V22.6667C5 26.48 6.85333 28.3333 10.6667 28.3333H21.3333C25.1467 28.3333 27 26.48 27 22.6667V11.3333C27 7.51999 25.1467 5.66666 21.3333 5.66666H10.6667Z" fill="black"/>
<path d="M21.3333 15.6667H10.6667C10.12 15.6667 9.66666 15.2133 9.66666 14.6667C9.66666 14.12 10.12 13.6667 10.6667 13.6667H21.3333C21.88 13.6667 22.3333 14.12 22.3333 14.6667C22.3333 15.2133 21.88 15.6667 21.3333 15.6667Z" fill="black"/>
<path d="M16 22.3333H10.6667C10.12 22.3333 9.66666 21.88 9.66666 21.3333C9.66666 20.7867 10.12 20.3333 10.6667 20.3333H16C16.5467 20.3333 17 20.7867 17 21.3333C17 21.88 16.5467 22.3333 16 22.3333Z" fill="black"/>
</svg>
