<svg width="128" height="128" viewBox="0 0 128 128" fill="none" xmlns="http://www.w3.org/2000/svg">
<path d="M42.6667 30.6667C40.48 30.6667 38.6667 28.8533 38.6667 26.6667V10.6667C38.6667 8.47999 40.48 6.66666 42.6667 6.66666C44.8534 6.66666 46.6667 8.47999 46.6667 10.6667V26.6667C46.6667 28.8533 44.8534 30.6667 42.6667 30.6667Z" fill="black"/>
<path d="M85.3333 30.6667C83.1466 30.6667 81.3333 28.8533 81.3333 26.6667V10.6667C81.3333 8.47999 83.1466 6.66666 85.3333 6.66666C87.52 6.66666 89.3333 8.47999 89.3333 10.6667V26.6667C89.3333 28.8533 87.52 30.6667 85.3333 30.6667Z" fill="black"/>
<path d="M85.3333 121.333H42.6667C23.2 121.333 12 110.133 12 90.6667V45.3333C12 25.8667 23.2 14.6667 42.6667 14.6667H85.3333C104.8 14.6667 116 25.8667 116 45.3333V90.6667C116 110.133 104.8 121.333 85.3333 121.333ZM42.6667 22.6667C27.4133 22.6667 20 30.08 20 45.3333V90.6667C20 105.92 27.4133 113.333 42.6667 113.333H85.3333C100.587 113.333 108 105.92 108 90.6667V45.3333C108 30.08 100.587 22.6667 85.3333 22.6667H42.6667Z" fill="black"/>
<path d="M85.3334 62.6667H42.6667C40.48 62.6667 38.6667 60.8533 38.6667 58.6667C38.6667 56.48 40.48 54.6667 42.6667 54.6667H85.3334C87.52 54.6667 89.3334 56.48 89.3334 58.6667C89.3334 60.8533 87.52 62.6667 85.3334 62.6667Z" fill="black"/>
<path d="M64 89.3333H42.6667C40.48 89.3333 38.6667 87.52 38.6667 85.3333C38.6667 83.1467 40.48 81.3333 42.6667 81.3333H64C66.1867 81.3333 68 83.1467 68 85.3333C68 87.52 66.1867 89.3333 64 89.3333Z" fill="black"/>
</svg>
